<mxfile host="app.diagrams.net" modified="2023-05-22T20:51:36.395Z" agent="Mozilla/5.0 (Windows NT 10.0; Win64; x64) AppleWebKit/537.36 (KHTML, like Gecko) Chrome/112.0.0.0 Safari/537.36" etag="MBF7AM8niAXAtX4BUN3H" version="21.3.2" type="device" pages="2">
  <diagram name="Page-1" id="XCAAlrS7xWNbH219VkaO">
    <mxGraphModel dx="798" dy="500" grid="1" gridSize="10" guides="1" tooltips="1" connect="1" arrows="1" fold="1" page="1" pageScale="1" pageWidth="827" pageHeight="1169" math="0" shadow="0">
      <root>
        <mxCell id="0" />
        <mxCell id="1" parent="0" />
        <mxCell id="JuJ9TDv9LQkUS_9YtmWW-8" value="" style="shape=cylinder3;whiteSpace=wrap;html=1;boundedLbl=1;backgroundOutline=1;size=55.78034973144531;rotation=-180;fillColor=#f5f5f5;gradientColor=#b3b3b3;strokeColor=#666666;" parent="1" vertex="1">
          <mxGeometry x="177.5" y="260" width="125" height="132.5" as="geometry" />
        </mxCell>
        <mxCell id="JuJ9TDv9LQkUS_9YtmWW-5" value="" style="shape=cylinder3;whiteSpace=wrap;html=1;boundedLbl=1;backgroundOutline=1;size=6.7954559326171875;fillColor=#f5f5f5;gradientColor=#b3b3b3;strokeColor=#666666;" parent="1" vertex="1">
          <mxGeometry x="230" y="170" width="20" height="110" as="geometry" />
        </mxCell>
        <mxCell id="JuJ9TDv9LQkUS_9YtmWW-4" value="" style="shape=cylinder3;whiteSpace=wrap;html=1;boundedLbl=1;backgroundOutline=1;size=15;fillColor=#f5f5f5;gradientColor=#b3b3b3;strokeColor=#666666;" parent="1" vertex="1">
          <mxGeometry x="180" y="150" width="120" height="50" as="geometry" />
        </mxCell>
        <mxCell id="JuJ9TDv9LQkUS_9YtmWW-16" value="" style="shape=cylinder3;whiteSpace=wrap;html=1;boundedLbl=1;backgroundOutline=1;size=15;fillColor=#e1d5e7;strokeColor=#9673a6;opacity=70;" parent="1" vertex="1">
          <mxGeometry x="177.5" y="100" width="122.5" height="70" as="geometry" />
        </mxCell>
        <mxCell id="JuJ9TDv9LQkUS_9YtmWW-9" value="" style="ellipse;whiteSpace=wrap;html=1;aspect=fixed;fillColor=#f5f5f5;gradientColor=#b3b3b3;strokeColor=#666666;rotation=-180;" parent="1" vertex="1">
          <mxGeometry x="230" y="330" width="20" height="20" as="geometry" />
        </mxCell>
        <mxCell id="JuJ9TDv9LQkUS_9YtmWW-12" value="" style="html=1;shadow=0;dashed=0;align=center;verticalAlign=middle;shape=mxgraph.arrows2.jumpInArrow;dy=6.85;dx=33.19;arrowHead=32.96;rotation=-60;fillColor=#fad7ac;strokeColor=#b46504;" parent="1" vertex="1">
          <mxGeometry x="140" y="296.5" width="80" height="59.51" as="geometry" />
        </mxCell>
        <mxCell id="JuJ9TDv9LQkUS_9YtmWW-15" value="" style="shape=doubleArrow;whiteSpace=wrap;html=1;rotation=90;arrowWidth=0.24874612991898176;arrowSize=0.22600067816840272;fillColor=#fad7ac;strokeColor=#b46504;" parent="1" vertex="1">
          <mxGeometry x="270" y="170" width="77.5" height="33.75" as="geometry" />
        </mxCell>
        <mxCell id="JuJ9TDv9LQkUS_9YtmWW-20" style="edgeStyle=orthogonalEdgeStyle;rounded=0;orthogonalLoop=1;jettySize=auto;html=1;entryX=0;entryY=0.5;entryDx=0;entryDy=0;entryPerimeter=0;" parent="1" source="JuJ9TDv9LQkUS_9YtmWW-17" target="JuJ9TDv9LQkUS_9YtmWW-16" edge="1">
          <mxGeometry relative="1" as="geometry" />
        </mxCell>
        <mxCell id="JuJ9TDv9LQkUS_9YtmWW-17" value="空气+燃料混合气体&lt;br&gt;air + fuel mix" style="text;html=1;strokeColor=none;fillColor=none;align=center;verticalAlign=middle;whiteSpace=wrap;rounded=0;" parent="1" vertex="1">
          <mxGeometry x="20" y="120" width="110" height="30" as="geometry" />
        </mxCell>
        <mxCell id="JuJ9TDv9LQkUS_9YtmWW-25" value="" style="html=1;shadow=0;dashed=0;align=center;verticalAlign=middle;shape=mxgraph.arrows2.jumpInArrow;dy=6.85;dx=33.19;arrowHead=32.96;rotation=120;fillColor=#fad7ac;strokeColor=#b46504;" parent="1" vertex="1">
          <mxGeometry x="260" y="310" width="80" height="59.51" as="geometry" />
        </mxCell>
        <mxCell id="JuJ9TDv9LQkUS_9YtmWW-26" value="&lt;h1&gt;汽缸 cylinder&lt;/h1&gt;" style="text;html=1;strokeColor=none;fillColor=none;spacing=5;spacingTop=-20;whiteSpace=wrap;overflow=hidden;rounded=0;" parent="1" vertex="1">
          <mxGeometry x="155" y="50" width="170" height="40" as="geometry" />
        </mxCell>
        <mxCell id="JuJ9TDv9LQkUS_9YtmWW-29" style="edgeStyle=orthogonalEdgeStyle;rounded=0;orthogonalLoop=1;jettySize=auto;html=1;entryX=0;entryY=0.5;entryDx=0;entryDy=0;entryPerimeter=0;" parent="1" source="JuJ9TDv9LQkUS_9YtmWW-27" target="JuJ9TDv9LQkUS_9YtmWW-4" edge="1">
          <mxGeometry relative="1" as="geometry" />
        </mxCell>
        <mxCell id="JuJ9TDv9LQkUS_9YtmWW-27" value="活塞 piston" style="text;html=1;strokeColor=none;fillColor=none;align=center;verticalAlign=middle;whiteSpace=wrap;rounded=0;" parent="1" vertex="1">
          <mxGeometry x="30" y="161.88" width="70" height="26.25" as="geometry" />
        </mxCell>
        <mxCell id="JuJ9TDv9LQkUS_9YtmWW-30" value="" style="shape=cylinder3;whiteSpace=wrap;html=1;boundedLbl=1;backgroundOutline=1;size=15;fillColor=#f5f5f5;gradientColor=#b3b3b3;strokeColor=#666666;opacity=50;" parent="1" vertex="1">
          <mxGeometry x="170" y="90" width="140" height="240" as="geometry" />
        </mxCell>
      </root>
    </mxGraphModel>
  </diagram>
  <diagram id="N-62_teSHSyIH6iKd34b" name="Page-2">
    <mxGraphModel dx="1796" dy="607" grid="1" gridSize="10" guides="1" tooltips="1" connect="1" arrows="1" fold="1" page="1" pageScale="1" pageWidth="827" pageHeight="1169" math="0" shadow="0">
      <root>
        <mxCell id="0" />
        <mxCell id="1" parent="0" />
        <mxCell id="mTztIPllPXsjE2HaRZ24-2" value="&lt;b&gt;(Under the hood)&lt;/b&gt;" style="rounded=0;whiteSpace=wrap;html=1;align=right;verticalAlign=top;" vertex="1" parent="1">
          <mxGeometry x="-120" y="170" width="610" height="450" as="geometry" />
        </mxCell>
        <mxCell id="IfERpaO3XSqclsiH-8ae-36" value="" style="shape=cylinder3;whiteSpace=wrap;html=1;boundedLbl=1;backgroundOutline=1;size=13.689957887391756;rotation=-120;fillColor=#dae8fc;gradientColor=#7ea6e0;strokeColor=#6c8ebf;" vertex="1" parent="1">
          <mxGeometry x="330" y="500" width="29.02" height="139.02" as="geometry" />
        </mxCell>
        <mxCell id="IfERpaO3XSqclsiH-8ae-74" style="edgeStyle=orthogonalEdgeStyle;rounded=0;orthogonalLoop=1;jettySize=auto;html=1;shape=link;" edge="1" parent="1" source="IfERpaO3XSqclsiH-8ae-10" target="IfERpaO3XSqclsiH-8ae-73">
          <mxGeometry relative="1" as="geometry" />
        </mxCell>
        <mxCell id="IfERpaO3XSqclsiH-8ae-10" value="" style="ellipse;whiteSpace=wrap;html=1;fillColor=#f5f5f5;gradientColor=#b3b3b3;strokeColor=#666666;" vertex="1" parent="1">
          <mxGeometry x="340" y="240" width="90" height="110" as="geometry" />
        </mxCell>
        <mxCell id="IfERpaO3XSqclsiH-8ae-8" value="" style="endArrow=none;html=1;rounded=0;shape=link;" edge="1" parent="1">
          <mxGeometry width="50" height="50" relative="1" as="geometry">
            <mxPoint x="110" y="440" as="sourcePoint" />
            <mxPoint x="180" y="400" as="targetPoint" />
          </mxGeometry>
        </mxCell>
        <mxCell id="IfERpaO3XSqclsiH-8ae-9" value="" style="endArrow=none;html=1;rounded=0;shape=link;" edge="1" parent="1">
          <mxGeometry width="50" height="50" relative="1" as="geometry">
            <mxPoint x="320" y="330" as="sourcePoint" />
            <mxPoint x="380" y="300" as="targetPoint" />
          </mxGeometry>
        </mxCell>
        <mxCell id="IfERpaO3XSqclsiH-8ae-7" value="" style="ellipse;whiteSpace=wrap;html=1;fillColor=#f5f5f5;gradientColor=#b3b3b3;strokeColor=#666666;" vertex="1" parent="1">
          <mxGeometry x="60" y="390" width="90" height="110" as="geometry" />
        </mxCell>
        <mxCell id="IfERpaO3XSqclsiH-8ae-14" value="" style="html=1;shape=mxgraph.basic.isocube;isoAngle=15;fillColor=#d5e8d4;gradientColor=#97d077;strokeColor=#82b366;" vertex="1" parent="1">
          <mxGeometry x="230" y="80" width="100" height="80" as="geometry" />
        </mxCell>
        <mxCell id="IfERpaO3XSqclsiH-8ae-15" value="fuel filter" style="text;html=1;strokeColor=none;fillColor=none;align=center;verticalAlign=middle;whiteSpace=wrap;rounded=0;" vertex="1" parent="1">
          <mxGeometry x="250" y="90" width="60" height="30" as="geometry" />
        </mxCell>
        <mxCell id="IfERpaO3XSqclsiH-8ae-17" value="" style="curved=1;endArrow=classic;html=1;rounded=0;strokeColor=#006600;" edge="1" parent="1">
          <mxGeometry width="50" height="50" relative="1" as="geometry">
            <mxPoint x="310" y="130" as="sourcePoint" />
            <mxPoint x="340" y="220" as="targetPoint" />
            <Array as="points">
              <mxPoint x="400" y="130" />
              <mxPoint x="410" y="190" />
            </Array>
          </mxGeometry>
        </mxCell>
        <mxCell id="IfERpaO3XSqclsiH-8ae-18" value="" style="endArrow=none;html=1;rounded=0;entryX=0.083;entryY=0.193;entryDx=0;entryDy=0;entryPerimeter=0;edgeStyle=orthogonalEdgeStyle;curved=1;strokeColor=#006600;" edge="1" parent="1">
          <mxGeometry width="50" height="50" relative="1" as="geometry">
            <mxPoint x="132" y="75" as="sourcePoint" />
            <mxPoint x="230" y="120" as="targetPoint" />
            <Array as="points">
              <mxPoint x="132" y="120" />
            </Array>
          </mxGeometry>
        </mxCell>
        <mxCell id="IfERpaO3XSqclsiH-8ae-19" value="" style="curved=1;endArrow=classic;html=1;rounded=0;strokeColor=#006600;" edge="1" parent="1">
          <mxGeometry width="50" height="50" relative="1" as="geometry">
            <mxPoint x="100" y="350" as="sourcePoint" />
            <mxPoint x="170" y="320" as="targetPoint" />
            <Array as="points">
              <mxPoint x="130" y="340" />
            </Array>
          </mxGeometry>
        </mxCell>
        <mxCell id="IfERpaO3XSqclsiH-8ae-12" value="" style="html=1;shape=mxgraph.basic.isocube;isoAngle=15;fillColor=#d5e8d4;gradientColor=#97d077;strokeColor=#82b366;" vertex="1" parent="1">
          <mxGeometry x="30" y="320" width="100" height="80" as="geometry" />
        </mxCell>
        <mxCell id="IfERpaO3XSqclsiH-8ae-20" value="" style="curved=1;endArrow=none;html=1;rounded=0;endFill=0;strokeColor=#006600;" edge="1" parent="1">
          <mxGeometry width="50" height="50" relative="1" as="geometry">
            <mxPoint x="-10" y="440" as="sourcePoint" />
            <mxPoint x="50" y="370" as="targetPoint" />
            <Array as="points">
              <mxPoint y="400" />
            </Array>
          </mxGeometry>
        </mxCell>
        <mxCell id="IfERpaO3XSqclsiH-8ae-13" value="air filter" style="text;html=1;strokeColor=none;fillColor=none;align=center;verticalAlign=middle;whiteSpace=wrap;rounded=0;" vertex="1" parent="1">
          <mxGeometry x="50" y="330" width="60" height="30" as="geometry" />
        </mxCell>
        <mxCell id="IfERpaO3XSqclsiH-8ae-32" value="" style="shape=parallelogram;perimeter=parallelogramPerimeter;whiteSpace=wrap;html=1;fixedSize=1;size=90;rotation=-210;fillColor=#99CCFF;gradientColor=#FF6666;strokeColor=#666666;" vertex="1" parent="1">
          <mxGeometry x="250" y="400" width="200" height="150" as="geometry" />
        </mxCell>
        <mxCell id="IfERpaO3XSqclsiH-8ae-33" value="" style="shape=cylinder3;whiteSpace=wrap;html=1;boundedLbl=1;backgroundOutline=1;size=13.689957887391756;rotation=-120;fillColor=#f8cecc;gradientColor=#ea6b66;strokeColor=#b85450;" vertex="1" parent="1">
          <mxGeometry x="340" y="320" width="29.02" height="139.02" as="geometry" />
        </mxCell>
        <mxCell id="IfERpaO3XSqclsiH-8ae-39" value="" style="shape=cylinder3;whiteSpace=wrap;html=1;boundedLbl=1;backgroundOutline=1;size=12.524107559867616;fillColor=#e1d5e7;strokeColor=#9673a6;" vertex="1" parent="1">
          <mxGeometry x="283.75" y="220" width="42.5" height="40" as="geometry" />
        </mxCell>
        <mxCell id="IfERpaO3XSqclsiH-8ae-40" value="" style="shape=cylinder3;whiteSpace=wrap;html=1;boundedLbl=1;backgroundOutline=1;size=12.524107559867616;fillColor=#e1d5e7;strokeColor=#9673a6;" vertex="1" parent="1">
          <mxGeometry x="243.75" y="240" width="42.5" height="40" as="geometry" />
        </mxCell>
        <mxCell id="IfERpaO3XSqclsiH-8ae-41" value="" style="shape=cylinder3;whiteSpace=wrap;html=1;boundedLbl=1;backgroundOutline=1;size=12.524107559867616;fillColor=#e1d5e7;strokeColor=#9673a6;" vertex="1" parent="1">
          <mxGeometry x="203.75" y="260" width="42.5" height="40" as="geometry" />
        </mxCell>
        <mxCell id="IfERpaO3XSqclsiH-8ae-42" value="" style="shape=cylinder3;whiteSpace=wrap;html=1;boundedLbl=1;backgroundOutline=1;size=12.524107559867616;fillColor=#e1d5e7;strokeColor=#9673a6;" vertex="1" parent="1">
          <mxGeometry x="163.75" y="280" width="42.5" height="40" as="geometry" />
        </mxCell>
        <mxCell id="IfERpaO3XSqclsiH-8ae-1" value="" style="shape=cylinder3;whiteSpace=wrap;html=1;boundedLbl=1;backgroundOutline=1;size=15;fillColor=#f5f5f5;opacity=50;gradientColor=#b3b3b3;strokeColor=#666666;" vertex="1" parent="1">
          <mxGeometry x="280" y="220" width="50" height="160" as="geometry" />
        </mxCell>
        <mxCell id="IfERpaO3XSqclsiH-8ae-2" value="" style="shape=cylinder3;whiteSpace=wrap;html=1;boundedLbl=1;backgroundOutline=1;size=15;fillColor=#f5f5f5;opacity=50;gradientColor=#b3b3b3;strokeColor=#666666;" vertex="1" parent="1">
          <mxGeometry x="240" y="240" width="50" height="160" as="geometry" />
        </mxCell>
        <mxCell id="IfERpaO3XSqclsiH-8ae-5" value="" style="shape=cylinder3;whiteSpace=wrap;html=1;boundedLbl=1;backgroundOutline=1;size=15;fillColor=#f5f5f5;opacity=50;gradientColor=#b3b3b3;strokeColor=#666666;" vertex="1" parent="1">
          <mxGeometry x="200" y="260" width="50" height="160" as="geometry" />
        </mxCell>
        <mxCell id="IfERpaO3XSqclsiH-8ae-6" value="" style="shape=cylinder3;whiteSpace=wrap;html=1;boundedLbl=1;backgroundOutline=1;size=15;fillColor=#f5f5f5;opacity=50;gradientColor=#b3b3b3;strokeColor=#666666;" vertex="1" parent="1">
          <mxGeometry x="160" y="280" width="50" height="160" as="geometry" />
        </mxCell>
        <mxCell id="IfERpaO3XSqclsiH-8ae-22" value="" style="ellipse;whiteSpace=wrap;html=1;fillColor=#ffcd28;gradientColor=#ffa500;strokeColor=#d79b00;" vertex="1" parent="1">
          <mxGeometry x="170" y="230" width="25" height="60" as="geometry" />
        </mxCell>
        <mxCell id="IfERpaO3XSqclsiH-8ae-23" value="" style="ellipse;whiteSpace=wrap;html=1;fillColor=#ffcd28;gradientColor=#ffa500;strokeColor=#d79b00;" vertex="1" parent="1">
          <mxGeometry x="212.5" y="210" width="25" height="60" as="geometry" />
        </mxCell>
        <mxCell id="IfERpaO3XSqclsiH-8ae-24" value="" style="ellipse;whiteSpace=wrap;html=1;fillColor=#ffcd28;gradientColor=#ffa500;strokeColor=#d79b00;" vertex="1" parent="1">
          <mxGeometry x="250" y="190" width="25" height="60" as="geometry" />
        </mxCell>
        <mxCell id="IfERpaO3XSqclsiH-8ae-25" value="" style="ellipse;whiteSpace=wrap;html=1;fillColor=#ffcd28;gradientColor=#ffa500;strokeColor=#d79b00;" vertex="1" parent="1">
          <mxGeometry x="292.5" y="170" width="25" height="60" as="geometry" />
        </mxCell>
        <mxCell id="IfERpaO3XSqclsiH-8ae-45" value="flywheel" style="text;html=1;strokeColor=none;fillColor=none;align=center;verticalAlign=middle;whiteSpace=wrap;rounded=0;fontSize=15;" vertex="1" parent="1">
          <mxGeometry x="50" y="430" width="110" height="30" as="geometry" />
        </mxCell>
        <mxCell id="IfERpaO3XSqclsiH-8ae-47" value="" style="curved=1;endArrow=classic;html=1;rounded=0;strokeColor=#FF0000;" edge="1" parent="1">
          <mxGeometry width="50" height="50" relative="1" as="geometry">
            <mxPoint x="190" y="349.51" as="sourcePoint" />
            <mxPoint x="310" y="419.51" as="targetPoint" />
            <Array as="points">
              <mxPoint x="180" y="389.51" />
              <mxPoint x="230" y="429.51" />
            </Array>
          </mxGeometry>
        </mxCell>
        <mxCell id="IfERpaO3XSqclsiH-8ae-48" value="" style="curved=1;endArrow=classic;html=1;rounded=0;strokeColor=#3333FF;" edge="1" parent="1">
          <mxGeometry width="50" height="50" relative="1" as="geometry">
            <mxPoint x="400" y="535" as="sourcePoint" />
            <mxPoint x="440" y="430" as="targetPoint" />
            <Array as="points">
              <mxPoint x="490" y="495" />
              <mxPoint x="480" y="445" />
            </Array>
          </mxGeometry>
        </mxCell>
        <mxCell id="IfERpaO3XSqclsiH-8ae-49" value="" style="curved=1;endArrow=classic;html=1;rounded=0;strokeColor=#6600CC;" edge="1" parent="1">
          <mxGeometry width="50" height="50" relative="1" as="geometry">
            <mxPoint x="321.25" y="470" as="sourcePoint" />
            <mxPoint x="378.75" y="510.98" as="targetPoint" />
            <Array as="points">
              <mxPoint x="333.25" y="610" />
              <mxPoint x="341.25" y="380" />
              <mxPoint x="363.27" y="590" />
              <mxPoint x="373.25" y="350" />
            </Array>
          </mxGeometry>
        </mxCell>
        <mxCell id="IfERpaO3XSqclsiH-8ae-50" value="coolant (&lt;font color=&quot;#ff0000&quot;&gt;hot&lt;/font&gt;)" style="text;html=1;strokeColor=none;fillColor=none;align=center;verticalAlign=middle;whiteSpace=wrap;rounded=0;" vertex="1" parent="1">
          <mxGeometry x="390" y="369.09" width="100" height="30" as="geometry" />
        </mxCell>
        <mxCell id="IfERpaO3XSqclsiH-8ae-51" value="coolant (&lt;font color=&quot;#3333ff&quot;&gt;cold&lt;/font&gt;)" style="text;html=1;strokeColor=none;fillColor=none;align=center;verticalAlign=middle;whiteSpace=wrap;rounded=0;" vertex="1" parent="1">
          <mxGeometry x="195" y="585" width="100" height="30" as="geometry" />
        </mxCell>
        <mxCell id="IfERpaO3XSqclsiH-8ae-52" value="radiator &lt;br&gt;散热器" style="text;html=1;strokeColor=none;fillColor=none;align=center;verticalAlign=middle;whiteSpace=wrap;rounded=0;fontSize=15;" vertex="1" parent="1">
          <mxGeometry x="220" y="500" width="110" height="30" as="geometry" />
        </mxCell>
        <mxCell id="mTztIPllPXsjE2HaRZ24-4" style="rounded=0;orthogonalLoop=1;jettySize=auto;html=1;entryX=0;entryY=0;entryDx=0;entryDy=17.52816223424836;entryPerimeter=0;dashed=1;strokeColor=#CC6600;edgeStyle=orthogonalEdgeStyle;" edge="1" parent="1" source="IfERpaO3XSqclsiH-8ae-54" target="IfERpaO3XSqclsiH-8ae-56">
          <mxGeometry relative="1" as="geometry">
            <Array as="points">
              <mxPoint x="40" y="490" />
              <mxPoint x="40" y="518" />
            </Array>
          </mxGeometry>
        </mxCell>
        <mxCell id="mTztIPllPXsjE2HaRZ24-5" style="rounded=0;orthogonalLoop=1;jettySize=auto;html=1;entryX=0.25;entryY=1;entryDx=0;entryDy=0;dashed=1;strokeColor=#CC6600;edgeStyle=orthogonalEdgeStyle;" edge="1" parent="1" source="IfERpaO3XSqclsiH-8ae-54" target="IfERpaO3XSqclsiH-8ae-65">
          <mxGeometry relative="1" as="geometry">
            <Array as="points">
              <mxPoint x="-62" y="490" />
              <mxPoint x="-62" y="386" />
            </Array>
          </mxGeometry>
        </mxCell>
        <mxCell id="IfERpaO3XSqclsiH-8ae-54" value="" style="shape=cylinder3;whiteSpace=wrap;html=1;boundedLbl=1;backgroundOutline=1;size=14.732206436619208;rotation=-120;fillColor=#fff2cc;gradientColor=#ffd966;strokeColor=#d6b656;" vertex="1" parent="1">
          <mxGeometry x="-34.00000000000001" y="462.82000000000005" width="34.35" height="55" as="geometry" />
        </mxCell>
        <mxCell id="IfERpaO3XSqclsiH-8ae-55" value="alternator 发电机" style="text;html=1;strokeColor=none;fillColor=none;align=center;verticalAlign=middle;whiteSpace=wrap;rounded=0;fontSize=15;" vertex="1" parent="1">
          <mxGeometry x="-97.93" y="508.91" width="126.74" height="30" as="geometry" />
        </mxCell>
        <mxCell id="IfERpaO3XSqclsiH-8ae-57" value="battery 电池" style="text;html=1;strokeColor=none;fillColor=none;align=center;verticalAlign=middle;whiteSpace=wrap;rounded=0;fontSize=15;" vertex="1" parent="1">
          <mxGeometry x="25" y="560" width="110" height="30" as="geometry" />
        </mxCell>
        <mxCell id="IfERpaO3XSqclsiH-8ae-62" style="rounded=0;orthogonalLoop=1;jettySize=auto;html=1;entryX=0.5;entryY=1;entryDx=0;entryDy=0;entryPerimeter=0;endArrow=none;endFill=0;dashed=1;" edge="1" parent="1" source="IfERpaO3XSqclsiH-8ae-59" target="IfERpaO3XSqclsiH-8ae-6">
          <mxGeometry relative="1" as="geometry" />
        </mxCell>
        <mxCell id="IfERpaO3XSqclsiH-8ae-59" value="" style="shape=cylinder3;whiteSpace=wrap;html=1;boundedLbl=1;backgroundOutline=1;size=14.732206436619208;rotation=-120;fillColor=#f5f5f5;gradientColor=#b3b3b3;strokeColor=#666666;" vertex="1" parent="1">
          <mxGeometry x="160" y="475.00000000000006" width="34.35" height="55" as="geometry" />
        </mxCell>
        <mxCell id="IfERpaO3XSqclsiH-8ae-60" value="engine starter" style="text;html=1;strokeColor=none;fillColor=none;align=center;verticalAlign=middle;whiteSpace=wrap;rounded=0;fontSize=12;" vertex="1" parent="1">
          <mxGeometry x="173.75" y="460" width="110" height="30" as="geometry" />
        </mxCell>
        <mxCell id="IfERpaO3XSqclsiH-8ae-65" value="Engine Control Module &lt;br&gt;(ECM) 引擎控制模块&lt;br&gt;&lt;br&gt;&quot;Computer&quot;" style="rounded=0;whiteSpace=wrap;html=1;fillColor=#f5f5f5;gradientColor=#b3b3b3;strokeColor=#666666;" vertex="1" parent="1">
          <mxGeometry x="-100" y="230" width="150" height="80" as="geometry" />
        </mxCell>
        <mxCell id="IfERpaO3XSqclsiH-8ae-71" value="（为一切electric system供电）" style="text;html=1;strokeColor=none;fillColor=none;align=center;verticalAlign=middle;whiteSpace=wrap;rounded=0;" vertex="1" parent="1">
          <mxGeometry x="-122.28" y="531.09" width="175.44" height="30" as="geometry" />
        </mxCell>
        <mxCell id="IfERpaO3XSqclsiH-8ae-72" value="flywheel" style="text;html=1;strokeColor=none;fillColor=none;align=center;verticalAlign=middle;whiteSpace=wrap;rounded=0;fontSize=15;" vertex="1" parent="1">
          <mxGeometry x="330" y="265" width="110" height="30" as="geometry" />
        </mxCell>
        <mxCell id="IfERpaO3XSqclsiH-8ae-81" style="edgeStyle=orthogonalEdgeStyle;rounded=0;orthogonalLoop=1;jettySize=auto;html=1;entryX=0.5;entryY=0;entryDx=0;entryDy=0;shape=link;" edge="1" parent="1" source="IfERpaO3XSqclsiH-8ae-73">
          <mxGeometry relative="1" as="geometry">
            <mxPoint x="660" y="370.32000000000016" as="targetPoint" />
            <Array as="points">
              <mxPoint x="664" y="295" />
            </Array>
          </mxGeometry>
        </mxCell>
        <mxCell id="IfERpaO3XSqclsiH-8ae-73" value="" style="html=1;shape=mxgraph.basic.isocube;isoAngle=15;fillColor=#f5f5f5;gradientColor=#b3b3b3;strokeColor=#666666;" vertex="1" parent="1">
          <mxGeometry x="510" y="250" width="110" height="90" as="geometry" />
        </mxCell>
        <mxCell id="IfERpaO3XSqclsiH-8ae-75" value="transmission box 变速箱" style="text;html=1;strokeColor=none;fillColor=none;align=center;verticalAlign=middle;whiteSpace=wrap;rounded=0;fontSize=15;" vertex="1" parent="1">
          <mxGeometry x="506.82" y="210" width="130" height="30" as="geometry" />
        </mxCell>
        <mxCell id="IfERpaO3XSqclsiH-8ae-76" value="" style="shape=cylinder3;whiteSpace=wrap;html=1;boundedLbl=1;backgroundOutline=1;size=30.918043728537555;rotation=-135;fillColor=#647687;strokeColor=#314354;fontColor=#ffffff;" vertex="1" parent="1">
          <mxGeometry x="600" y="340" width="76.82" height="88.18" as="geometry" />
        </mxCell>
        <mxCell id="IfERpaO3XSqclsiH-8ae-77" value="" style="shape=cylinder3;whiteSpace=wrap;html=1;boundedLbl=1;backgroundOutline=1;size=30.918043728537555;rotation=-135;fillColor=#647687;strokeColor=#314354;fontColor=#ffffff;" vertex="1" parent="1">
          <mxGeometry x="560" y="380" width="76.82" height="88.18" as="geometry" />
        </mxCell>
        <mxCell id="IfERpaO3XSqclsiH-8ae-78" value="" style="shape=cylinder3;whiteSpace=wrap;html=1;boundedLbl=1;backgroundOutline=1;size=30.918043728537555;rotation=-135;fillColor=#647687;strokeColor=#314354;fontColor=#ffffff;" vertex="1" parent="1">
          <mxGeometry x="670" y="369.64" width="76.82" height="88.18" as="geometry" />
        </mxCell>
        <mxCell id="IfERpaO3XSqclsiH-8ae-79" value="" style="shape=cylinder3;whiteSpace=wrap;html=1;boundedLbl=1;backgroundOutline=1;size=30.918043728537555;rotation=-135;fillColor=#647687;strokeColor=#314354;fontColor=#ffffff;" vertex="1" parent="1">
          <mxGeometry x="630" y="409.64" width="76.82" height="88.18" as="geometry" />
        </mxCell>
        <mxCell id="IfERpaO3XSqclsiH-8ae-83" value="wheels 轮子" style="text;html=1;strokeColor=none;fillColor=none;align=center;verticalAlign=middle;whiteSpace=wrap;rounded=0;fontSize=15;" vertex="1" parent="1">
          <mxGeometry x="676.82" y="330" width="93.18" height="30" as="geometry" />
        </mxCell>
        <mxCell id="IfERpaO3XSqclsiH-8ae-56" value="" style="html=1;shape=mxgraph.basic.isocube;isoAngle=12.8;fillColor=#647687;strokeColor=#314354;fontColor=#ffffff;" vertex="1" parent="1">
          <mxGeometry x="100" y="500" width="86" height="70" as="geometry" />
        </mxCell>
        <mxCell id="mTztIPllPXsjE2HaRZ24-6" value="&lt;font style=&quot;font-size: 15px;&quot;&gt;(cylindars)&lt;/font&gt;" style="text;html=1;strokeColor=none;fillColor=none;align=center;verticalAlign=middle;whiteSpace=wrap;rounded=0;" vertex="1" parent="1">
          <mxGeometry x="220" y="320" width="60" height="30" as="geometry" />
        </mxCell>
        <mxCell id="IfERpaO3XSqclsiH-8ae-26" value="spark plugs 火花塞" style="text;html=1;strokeColor=none;fillColor=none;align=center;verticalAlign=middle;whiteSpace=wrap;rounded=0;fontSize=15;" vertex="1" parent="1">
          <mxGeometry x="120" y="190" width="130" height="30" as="geometry" />
        </mxCell>
      </root>
    </mxGraphModel>
  </diagram>
</mxfile>
